PathFileType	4	(X/Y/Z)	C:/Users/opensim2020/Desktop/walking_exp_matlab/subject03_walking05_straight_02.trc	
DataRate	CameraRate	NumFrames	NumMarkers	Units	OrigDataRate	OrigDataStartFrame	OrigNumFrames	
100.00	100.00	5	45	mm	100.00	1540	252	
Frame#	Time	LFHD			RFHD			LBHD			RBHD			C7			T10			CLAV			STRN			RBAK			LSHO			LUPA			LELB			LFRM			LWRA			LWRB			LFIN			RSHO			RUPA			RELB			RFRM			RWRA			RWRB			RFIN			LASI			RASI			LPSI			RPSI			LTHI			LKNE			LTIB			LANK			LHEE			LTOE			RTHI			RKNE			RTIB			RANK			RHEE			RTOE			*39			*40			*41			*42			*43			*44			
		X1	Y1	Z1	X2	Y2	Z2	X3	Y3	Z3	X4	Y4	Z4	X5	Y5	Z5	X6	Y6	Z6	X7	Y7	Z7	X8	Y8	Z8	X9	Y9	Z9	X10	Y10	Z10	X11	Y11	Z11	X12	Y12	Z12	X13	Y13	Z13	X14	Y14	Z14	X15	Y15	Z15	X16	Y16	Z16	X17	Y17	Z17	X18	Y18	Z18	X19	Y19	Z19	X20	Y20	Z20	X21	Y21	Z21	X22	Y22	Z22	X23	Y23	Z23	X24	Y24	Z24	X25	Y25	Z25	X26	Y26	Z26	X27	Y27	Z27	X28	Y28	Z28	X29	Y29	Z29	X30	Y30	Z30	X31	Y31	Z31	X32	Y32	Z32	X33	Y33	Z33	X34	Y34	Z34	X35	Y35	Z35	X36	Y36	Z36	X37	Y37	Z37	X38	Y38	Z38	X39	Y39	Z39	X40	Y40	Z40	X41	Y41	Z41	X42	Y42	Z42	X43	Y43	Z43	X44	Y44	Z44	X45	Y45	Z45	

64	0.630	1528.81042	650.81036	1618.62927	1398.41663	671.55994	1634.74121	1539.14539	776.92218	1569.41809	1410.43848	792.83667	1585.58777	1475.00378	811.97253	1420.00439	1466.81152	841.34235	1105.08191	1452.59778	690.93274	1344.17175	1445.65710	645.41693	1180.69348	1379.26184	877.83234	1246.62549	1614.35242	712.95184	1371.53247	1680.50464	702.62549	1173.31873	1690.80347	689.49841	1050.96143	1685.74048	660.07825	923.79718	1652.65271	648.12115	805.49518	1707.69873	656.21729	811.23145	1695.38110	642.99927	727.92847	1302.29749	759.25507	1374.02612	1227.34302	751.30780	1151.82227	1214.70642	725.82813	1041.33264	1214.64941	692.50287	908.59143	1251.84473	648.68958	819.53180	1208.94043	680.50958	808.80713	1221.12170	647.65076	742.13794	1564.98267	656.27179	950.58606	1328.08069	687.25049	940.06854	1535.22388	822.97235	969.43091	1387.18835	841.00568	965.55615	1605.57764	692.05231	647.65594	1559.25281	680.51343	471.41913	1561.54932	722.46179	279.46140	1517.65100	734.58789	70.92427	1484.02588	776.46100	35.61832	1478.54041	583.60669	35.00327	1288.77722	707.22906	639.53607	1306.51892	655.89331	467.21475	1319.73730	798.81775	345.57141	1379.13782	960.14734	210.75363	1439.26721	1004.75470	221.84248	1384.58020	906.14331	78.34897	1498.31799	742.32001	1681.03821															 
65	0.640	1528.33594	641.82239	1618.91052	1397.91174	662.74707	1634.95618	1538.73254	768.01367	1569.72998	1410.03137	784.03943	1585.87744	1474.58801	803.26996	1420.25586	1466.68994	832.44403	1105.38867	1452.31934	682.32764	1344.46375	1445.77515	636.79565	1181.06055	1379.49365	869.18793	1246.67468	1613.99951	704.33777	1372.28809	1680.28845	690.60156	1174.80286	1690.32813	673.73657	1052.68591	1685.25330	641.90265	926.35986	1652.84521	624.97375	809.31598	1707.54358	635.13531	814.12976	1695.44690	618.56982	731.71997	1301.97546	751.06763	1373.97290	1227.22070	743.82941	1151.67700	1214.51550	718.78296	1041.11792	1213.57751	687.33710	907.95111	1250.26282	645.01599	817.86786	1207.10938	676.73883	808.06689	1218.64685	644.62177	740.92224	1565.82007	647.29340	951.07440	1328.73157	677.51282	941.21826	1534.82458	814.27338	969.57208	1386.68066	831.64105	966.13092	1604.64001	684.92822	647.45715	1558.71448	676.18414	471.16364	1561.39185	720.44208	279.57666	1517.44214	734.43884	71.11438	1483.84131	776.47565	35.84554	1478.49426	583.53131	34.93882	1287.67749	692.59064	641.06464	1306.45129	637.37933	469.70404	1318.64343	777.84570	345.47595	1376.27771	937.27454	207.77338	1435.75098	983.32788	217.13115	1381.64026	878.86475	77.56532	1497.16797	733.34393	1681.52795															 
66	0.650	1527.84082	632.94623	1619.15125	1397.39380	653.84534	1635.16235	1538.80823	759.46381	1570.21765	1409.59619	775.18591	1586.11316	1474.28137	794.70642	1420.51526	1466.45276	823.65588	1105.62964	1452.07031	673.66052	1344.63281	1445.99854	627.99164	1181.32593	1379.55566	860.52100	1246.72192	1613.66748	695.90607	1373.18506	1680.17407	679.01367	1176.45410	1690.17627	659.00159	1054.90771	1684.82605	624.01965	929.37469	1652.38953	604.80731	812.65753	1707.26147	614.17212	817.54803	1695.43665	594.27332	736.16211	1301.67151	742.70880	1374.01306	1227.08740	736.49725	1151.56702	1214.24182	711.90607	1040.99792	1212.52917	682.08954	907.40961	1248.49023	641.14008	816.56189	1205.27185	672.95148	807.44678	1216.14783	641.63153	739.72931	1566.45789	638.85712	951.12622	1329.31494	667.84753	942.34351	1534.36780	805.67969	969.62274	1386.10315	822.34497	966.64655	1603.90222	677.79651	647.06732	1558.34412	672.19037	470.86847	1561.23035	718.36493	279.74466	1517.46594	734.42224	71.56316	1483.73865	776.48425	36.07802	1478.48218	583.40302	34.91888	1287.90833	677.70557	642.70941	1306.53687	619.13037	472.21719	1317.34509	756.92316	344.80893	1373.25476	913.89435	203.67824	1431.98108	961.17548	211.12802	1379.14453	850.62054	76.08345	1496.74255	724.45844	1682.03418															 
67	0.660	1527.26611	624.06256	1619.29663	1396.82996	644.87170	1635.20081	1538.19971	750.57031	1570.47217	1409.00342	766.26801	1586.31934	1473.84363	786.10126	1420.66418	1466.18445	814.86401	1105.77380	1451.79382	665.06964	1344.80518	1446.26172	619.23761	1181.48254	1379.45789	851.84753	1246.83813	1613.32385	687.45844	1374.07312	1680.24304	667.71417	1178.20544	1689.99951	644.41309	1057.19751	1684.46411	606.26855	932.57556	1651.76392	585.68640	816.09039	1706.83118	593.29700	821.20062	1695.12866	570.10913	740.80975	1301.38562	734.29041	1374.00110	1226.86157	729.35492	1151.49438	1213.87109	705.21539	1040.82751	1211.37476	677.05634	906.91455	1246.74683	637.27924	815.25781	1203.43896	669.17114	806.97650	1213.50940	638.94763	738.94708	1566.96057	630.67352	951.06317	1329.76270	658.22656	943.21466	1533.90540	797.08313	969.54150	1385.48804	813.07977	966.98865	1603.34924	671.29999	647.00354	1558.19031	668.31451	470.59592	1561.05627	716.21216	279.90866	1517.34521	734.20850	71.81026	1482.58105	775.84967	34.90343	1478.47192	583.31537	34.87138	1287.27173	662.33276	644.08087	1306.89331	601.33179	474.80777	1316.13159	735.94904	343.71951	1370.06921	890.01031	198.35036	1428.44019	938.47668	204.07173	1377.17004	821.49969	73.93440	1496.03015	715.47906	1682.24622															 
68	0.670	1526.60510	615.02307	1619.36267	1396.22278	635.98767	1635.18884	1537.61902	741.73352	1570.74829	1408.39795	757.41742	1586.46655	1473.38904	777.50781	1420.83130	1465.91528	806.13702	1105.86536	1451.58228	656.46179	1344.95349	1446.47253	610.71289	1181.56531	1379.22888	843.15570	1246.89722	1612.94482	679.07806	1374.98596	1680.36938	656.78204	1179.92773	1690.04358	630.30640	1059.62085	1684.14111	588.72803	936.03998	1651.22900	563.65576	820.51306	1706.24805	572.60907	825.15289	1694.85803	546.20581	746.05304	1301.17407	725.76825	1373.95081	1226.60071	722.26868	1151.35742	1213.32483	698.65601	1040.66614	1210.18298	672.01288	906.51355	1244.86194	633.09827	814.14740	1201.62610	665.37952	806.49274	1211.28162	635.59204	737.95581	1567.43164	622.41919	950.84717	1330.34607	648.95020	943.79529	1533.32214	788.53760	969.39722	1384.89063	803.89441	967.23987	1603.05237	665.15845	646.69165	1558.06897	664.49237	470.38678	1560.81262	713.98511	280.00388	1517.16748	734.03040	72.05556	1482.60291	775.66577	35.63361	1478.50098	583.20190	34.80580	1286.87195	648.42639	645.95953	1307.37561	584.01257	477.42334	1314.98279	714.99097	342.27139	1367.62085	865.28864	192.73793	1425.06677	915.04541	195.94719	1375.30286	791.33087	71.56467	1495.41565	706.49927	1682.28528															 
